<svg width="20" height="19" viewBox="0 0 20 19" fill="none" xmlns="http://www.w3.org/2000/svg">
<path d="M11.8496 4.23437C12.6394 4.38846 13.3652 4.77472 13.9342 5.34371C14.5032 5.9127 14.8895 6.63854 15.0436 7.42832M11.8496 1C13.4905 1.18229 15.0206 1.91709 16.1887 3.08375C17.3569 4.25042 18.0936 5.77961 18.2779 7.42023M17.4693 13.8728V16.2986C17.4703 16.5238 17.4241 16.7467 17.3339 16.953C17.2437 17.1594 17.1114 17.3446 16.9454 17.4968C16.7795 17.6491 16.5836 17.765 16.3703 17.8371C16.1569 17.9093 15.9309 17.936 15.7066 17.9158C13.2184 17.6454 10.8284 16.7952 8.72845 15.4334C6.77475 14.1919 5.11835 12.5355 3.87689 10.5818C2.51034 8.47238 1.65992 6.07069 1.3945 3.57133C1.3743 3.34772 1.40087 3.12236 1.47253 2.90959C1.54419 2.69682 1.65937 2.50131 1.81074 2.33549C1.9621 2.16967 2.14634 2.03719 2.35171 1.94648C2.55708 1.85576 2.77909 1.80881 3.0036 1.80859H5.42939C5.8218 1.80473 6.20223 1.94369 6.49977 2.19958C6.79731 2.45546 6.99165 2.8108 7.04657 3.19937C7.14896 3.97568 7.33884 4.73791 7.61259 5.47152C7.72138 5.76094 7.74492 6.07547 7.68043 6.37786C7.61594 6.68025 7.46612 6.95781 7.24872 7.17766L6.22181 8.20457C7.37289 10.2289 9.04902 11.9051 11.0734 13.0561L12.1003 12.0292C12.3201 11.8118 12.5977 11.662 12.9001 11.5975C13.2025 11.533 13.517 11.5566 13.8064 11.6654C14.54 11.9391 15.3023 12.129 16.0786 12.2314C16.4714 12.2868 16.8301 12.4846 17.0865 12.7873C17.3429 13.0899 17.4792 13.4763 17.4693 13.8728Z" stroke="black" stroke-width="1.5" stroke-linecap="round" stroke-linejoin="round"/>
</svg>
